# Burdened: broad tank silhouette with heavy rear load
o burdened
v -0.85 0.00 0.55
v 0.85 0.00 0.55
v 0.85 0.00 -0.55
v -0.85 0.00 -0.55
v -0.75 1.25 0.45
v 0.75 1.25 0.45
v 0.75 1.25 -0.45
v -0.75 1.25 -0.45
v -0.45 1.95 0.30
v 0.45 1.95 0.30
v 0.45 1.95 -0.30
v -0.45 1.95 -0.30
v -1.20 0.35 -0.70
v 1.20 0.35 -0.70
v 1.05 1.15 -0.95
v -1.05 1.15 -0.95
v 0.00 2.25 -0.78
f 1 2 6
f 1 6 5
f 2 3 7
f 2 7 6
f 3 4 8
f 3 8 7
f 4 1 5
f 4 5 8
f 5 6 10
f 5 10 9
f 6 7 11
f 6 11 10
f 7 8 12
f 7 12 11
f 8 5 9
f 8 9 12
f 9 10 11
f 9 11 12
f 4 3 2
f 4 2 1
f 13 14 15
f 13 15 16
f 16 15 17
f 16 17 12
f 15 11 17
f 12 17 11
